<?xml version="1.0" encoding="utf-8"?>
<!-- Generator: Adobe Illustrator 24.1.0, SVG Export Plug-In . SVG Version: 6.00 Build 0)  -->
<svg version="1.1" id="Layer_1" xmlns="http://www.w3.org/2000/svg" xmlns:xlink="http://www.w3.org/1999/xlink" x="0px" y="0px"
	 viewBox="0 0 220.51 143.86" style="enable-background:new 0 0 220.51 143.86;" xml:space="preserve">
<style type="text/css">
	.st0{fill:#495057;}
</style>
<path class="st0" d="M32.27,21.91L2.15,52.03C0.7,53.48-0.02,55.4,0,57.3c-0.02,1.91,0.7,3.82,2.15,5.27l30.11,30.11
	c2.88,2.88,7.54,2.88,10.41,0c2.88-2.88,2.88-7.54,0-10.41L24.67,64.27h42.87c4.07,0,7.36-3.3,7.36-7.36v0
	c0-4.07-3.3-7.36-7.36-7.36H25.47l17.21-17.21c2.88-2.88,2.88-7.54,0-10.41v0C39.81,19.04,35.14,19.04,32.27,21.91z"/>
<path class="st0" d="M50.71,97.04c-2.23,0-4.19,1.73-4.21,3.97c0,0.02,0,0.04,0,0.05v4.02c0,8.57-0.67,11.55,7.81,11.71
	c3.25,0.06,3.96,1.13,4.43,4.23c1.3,8.57,6.27,15.07,13.66,19.29c16.45,9.41,37.03-0.82,39.8-19.75c0.46-3.14,1.57-3.76,4.36-3.73
	c9.32,0.12,18.65,0.11,27.97,0.01c2.61-0.03,3.65,0.61,4.06,3.5c1.85,12.82,13.23,23.18,25.32,23.5
	c13.44,0.35,25.58-8.56,27.84-21.64c0.88-5.1,2.94-5.46,7.04-5.39c12.04,0.2,11.98,0.07,11.58-12.27c-0.12-3.63-1.44-5.88-5.28-5.59
	c-3.3,0.25-3.84-1.34-3.79-4.16c0.12-7.63-0.03-15.27,0.06-22.9c0.02-1.56-0.31-3.1-1-4.49c-1.55-3.12-4.49-7.89-7.79-12.07
	c-5.68-7.22-10.73-12.27-20.39-20.43c-4.66-3.94-7.34-7.82-12.75-7.95c-3.79-0.09-13.11-0.88-13.11-0.88l-1.21-16.58
	c-0.38-5.27-4.73-9.36-10.01-9.45c-0.72-0.01-1.51-0.02-2.38-0.02c-29.14-0.03-58.28,0.05-87.42,0C43.77-0.02,46.5,1.51,46.5,8.03
	v5.88c0,1.7,1.15,3.12,2.76,3.66c0.47,0.16,2.71,0.36,5.2,0.61H90.2c3.47,0,6.29,2.82,6.29,6.29v68.3c0,2.36-1.91,4.28-4.28,4.28
	H50.71z M83.93,131.3c-7.8-0.05-12.94-5.36-12.89-13.33c0.05-7.8,5.36-12.93,13.33-12.89c7.8,0.05,12.94,5.36,12.89,13.33
	C97.21,126.21,91.89,131.35,83.93,131.3z M174.06,131.3c-7.88-0.01-13.09-5.23-13.09-13.12c0-7.88,5.23-13.09,13.13-13.09
	c7.88,0,13.09,5.23,13.09,13.12C187.19,126.09,181.96,131.3,174.06,131.3z M191.84,73.18c-5.15,0.13-10.3,0.05-15.45,0.05
	c-5.48,0-20.4-0.52-20.4-0.52s0,0,0.06-3c0.15-8.04,0.01-25.86,0.01-24.87s-0.03-3.49-0.03-3.49c0.15,0,0.85,0,3.6,0
	c10.49,0,9.63,0.45,14.49,5.41c6.32,7.25,13.5,13.74,20.31,20.56c1.27,1.27,3.06,5.94,3.06,5.94S193.5,73.14,191.84,73.18z"/>
</svg>
