<?xml version="1.0" encoding="utf-8"?>
<!-- Generator: Adobe Illustrator 24.1.0, SVG Export Plug-In . SVG Version: 6.00 Build 0)  -->
<svg version="1.1" id="Layer_1" xmlns="http://www.w3.org/2000/svg" xmlns:xlink="http://www.w3.org/1999/xlink" x="0px" y="0px"
	 viewBox="0 0 220.51 143.86" style="enable-background:new 0 0 220.51 143.86;" xml:space="preserve">
<style type="text/css">
	.st0{fill:#495057;}
	.st1{fill:#495057;stroke:#FFFFFF;stroke-miterlimit:10;}
</style>
<g>
	<path class="st0" d="M220.39,104.54c-0.12-3.63-1.44-5.88-5.28-5.59c-3.3,0.25-3.84-1.34-3.79-4.16
		c0.12-7.63-0.03-15.26,0.06-22.89c0.02-1.56-0.31-3.11-1.01-4.52c-1.55-3.12-4.49-7.88-7.79-12.06
		c-5.68-7.22-10.73-12.27-20.39-20.43c-4.66-3.94-7.34-7.82-12.75-7.95c-3.79-0.09-13.11-0.88-13.11-0.88l-1.21-16.58
		c-0.38-5.27-4.72-9.36-10-9.45c-0.72-0.01-1.52-0.02-2.38-0.02c-29.14-0.03-58.28,0.05-87.42,0C43.77-0.02,40.5,1.51,40.5,8.03
		v5.88c0,1.7,1.15,3.12,2.76,3.66c1.12,0.37,2.16,1,3.05,1.89l32.21,32.21c1.56,1.56,2.32,3.6,2.3,5.64
		c0.02,2.04-0.75,4.08-2.3,5.64L46.31,95.15c-0.89,0.89-1.94,1.52-3.05,1.89c-1.69,0.56-2.76,2.24-2.76,4.02v4.02
		c0,8.57,5.33,11.55,13.81,11.71c3.25,0.06,3.96,1.13,4.43,4.23c1.3,8.57,6.27,15.07,13.66,19.29c16.45,9.41,37.03-0.82,39.8-19.75
		c0.46-3.14,1.57-3.76,4.36-3.73c9.32,0.12,18.65,0.11,27.97,0.01c2.61-0.03,3.65,0.61,4.06,3.5c1.85,12.82,13.23,23.18,25.32,23.5
		c13.44,0.35,25.58-8.56,27.84-21.64c0.88-5.1,2.94-5.46,7.04-5.39C220.85,117.01,220.79,116.88,220.39,104.54z M83.93,131.3
		c-7.8-0.05-12.94-5.36-12.89-13.33c0.05-7.8,5.36-12.93,13.33-12.89c7.8,0.05,12.94,5.36,12.89,13.33
		C97.21,126.21,91.89,131.35,83.93,131.3z M174.06,131.3c-7.88-0.01-13.09-5.23-13.09-13.12c0-7.88,5.23-13.09,13.13-13.09
		c7.88,0,13.09,5.23,13.09,13.12C187.19,126.09,181.96,131.3,174.06,131.3z M191.84,73.18c-5.15,0.13-10.3,0.05-15.45,0.05
		c-5.48,0-20.4-0.52-20.4-0.52s0,0,0.06-3c0.15-8.04,0.01-25.86,0.01-24.87s-0.03-3.49-0.03-3.49c0.15,0,0.85,0,3.6,0
		c10.49,0,9.63,0.45,14.49,5.41c6.32,7.25,13.5,13.74,20.31,20.56c1.27,1.27,3.06,5.94,3.06,5.94S193.5,73.14,191.84,73.18z"/>
</g>
<path class="st1" d="M37.88,88.75l26.76-26.76c1.29-1.29,1.93-2.99,1.91-4.69c0.02-1.69-0.62-3.39-1.91-4.69L37.88,25.86
	c-2.55-2.55-6.7-2.55-9.25,0c-2.55,2.55-2.55,6.7,0,9.25l16,16H6.54C2.93,51.11,0,54.04,0,57.66v0c0,3.61,2.93,6.54,6.54,6.54h37.38
	L28.63,79.49c-2.55,2.55-2.55,6.7,0,9.25v0C31.18,91.3,35.32,91.3,37.88,88.75z"/>
</svg>
