<svg width="13" height="14" viewBox="0 0 13 14" fill="none" xmlns="http://www.w3.org/2000/svg">
<path d="M4.76953 11.0434C4.40286 11.0434 4.08898 10.9129 3.82786 10.6518C3.56675 10.3907 3.4362 10.0768 3.4362 9.7101V1.7101C3.4362 1.34344 3.56675 1.02955 3.82786 0.768437C4.08898 0.507326 4.40286 0.37677 4.76953 0.37677H10.7695C11.1362 0.37677 11.4501 0.507326 11.7112 0.768437C11.9723 1.02955 12.1029 1.34344 12.1029 1.7101V9.7101C12.1029 10.0768 11.9723 10.3907 11.7112 10.6518C11.4501 10.9129 11.1362 11.0434 10.7695 11.0434H4.76953ZM4.76953 9.7101H10.7695V1.7101H4.76953V9.7101ZM2.10286 13.7101C1.7362 13.7101 1.42231 13.5795 1.1612 13.3184C0.900087 13.0573 0.769531 12.7434 0.769531 12.3768V3.04344H2.10286V12.3768H9.4362V13.7101H2.10286Z" fill="#2196F2"/>
</svg>
