<svg width="14" height="14" viewBox="0 0 14 14" fill="none" xmlns="http://www.w3.org/2000/svg">
<path d="M11.4362 13.0434L6.76951 8.37677L5.20284 9.94344C5.29173 10.1101 5.35284 10.2879 5.38618 10.4768C5.41951 10.6657 5.43618 10.8545 5.43618 11.0434C5.43618 11.7768 5.17507 12.4045 4.65284 12.9268C4.13062 13.449 3.50284 13.7101 2.76951 13.7101C2.03618 13.7101 1.4084 13.449 0.886178 12.9268C0.363955 12.4045 0.102844 11.7768 0.102844 11.0434C0.102844 10.3101 0.363955 9.68233 0.886178 9.1601C1.4084 8.63788 2.03618 8.37677 2.76951 8.37677C2.9584 8.37677 3.14729 8.39344 3.33618 8.42677C3.52507 8.4601 3.70284 8.52121 3.86951 8.6101L5.43618 7.04344L3.86951 5.47677C3.70284 5.56566 3.52507 5.62677 3.33618 5.6601C3.14729 5.69344 2.9584 5.7101 2.76951 5.7101C2.03618 5.7101 1.4084 5.44899 0.886178 4.92677C0.363955 4.40455 0.102844 3.77677 0.102844 3.04344C0.102844 2.3101 0.363955 1.68233 0.886178 1.1601C1.4084 0.637881 2.03618 0.37677 2.76951 0.37677C3.50284 0.37677 4.13062 0.637881 4.65284 1.1601C5.17507 1.68233 5.43618 2.3101 5.43618 3.04344C5.43618 3.23233 5.41951 3.42121 5.38618 3.6101C5.35284 3.79899 5.29173 3.97677 5.20284 4.14344L13.4362 12.3768V13.0434H11.4362ZM8.76951 6.37677L7.43618 5.04344L11.4362 1.04344H13.4362V1.7101L8.76951 6.37677ZM2.76951 4.37677C3.13618 4.37677 3.45007 4.24621 3.71118 3.9851C3.97229 3.72399 4.10284 3.4101 4.10284 3.04344C4.10284 2.67677 3.97229 2.36288 3.71118 2.10177C3.45007 1.84066 3.13618 1.7101 2.76951 1.7101C2.40284 1.7101 2.08896 1.84066 1.82784 2.10177C1.56673 2.36288 1.43618 2.67677 1.43618 3.04344C1.43618 3.4101 1.56673 3.72399 1.82784 3.9851C2.08896 4.24621 2.40284 4.37677 2.76951 4.37677ZM6.76951 7.37677C6.8584 7.37677 6.93618 7.34344 7.00284 7.27677C7.06951 7.2101 7.10284 7.13233 7.10284 7.04344C7.10284 6.95455 7.06951 6.87677 7.00284 6.8101C6.93618 6.74344 6.8584 6.7101 6.76951 6.7101C6.68062 6.7101 6.60284 6.74344 6.53618 6.8101C6.46951 6.87677 6.43618 6.95455 6.43618 7.04344C6.43618 7.13233 6.46951 7.2101 6.53618 7.27677C6.60284 7.34344 6.68062 7.37677 6.76951 7.37677ZM2.76951 12.3768C3.13618 12.3768 3.45007 12.2462 3.71118 11.9851C3.97229 11.724 4.10284 11.4101 4.10284 11.0434C4.10284 10.6768 3.97229 10.3629 3.71118 10.1018C3.45007 9.84066 3.13618 9.7101 2.76951 9.7101C2.40284 9.7101 2.08896 9.84066 1.82784 10.1018C1.56673 10.3629 1.43618 10.6768 1.43618 11.0434C1.43618 11.4101 1.56673 11.724 1.82784 11.9851C2.08896 12.2462 2.40284 12.3768 2.76951 12.3768Z" fill="#2196F2"/>
</svg>
