<svg width="22" height="22" viewBox="0 0 22 22" fill="none" xmlns="http://www.w3.org/2000/svg">
<path d="M2.41667 21.7501C1.82083 21.7501 1.31076 21.538 0.886458 21.1137C0.462153 20.6894 0.25 20.1793 0.25 19.5835V4.41681C0.25 3.82098 0.462153 3.31091 0.886458 2.8866C1.31076 2.4623 1.82083 2.25015 2.41667 2.25015H12.0854L9.91875 4.41681H2.41667V19.5835H17.5833V12.0543L19.75 9.88765V19.5835C19.75 20.1793 19.5378 20.6894 19.1135 21.1137C18.6892 21.538 18.1792 21.7501 17.5833 21.7501H2.41667ZM6.75 15.2501V10.646L16.6896 0.706397C16.9062 0.48973 17.15 0.32723 17.4208 0.218896C17.6917 0.110563 17.9625 0.0563965 18.2333 0.0563965C18.5222 0.0563965 18.7976 0.110563 19.0594 0.218896C19.3212 0.32723 19.5604 0.48973 19.7771 0.706397L21.2937 2.25015C21.4924 2.46681 21.6458 2.70605 21.7542 2.96785C21.8625 3.22966 21.9167 3.49598 21.9167 3.76681C21.9167 4.03765 21.867 4.30397 21.7677 4.56577C21.6684 4.82758 21.5104 5.06681 21.2937 5.28348L11.3542 15.2501H6.75ZM8.91667 13.0835H10.4333L16.7167 6.80015L15.9583 6.04181L15.1729 5.28348L8.91667 11.5397V13.0835Z" fill="#2196F2"/>
</svg>
