<svg width="18" height="17" viewBox="0 0 18 17" fill="none" xmlns="http://www.w3.org/2000/svg">
<path d="M7.99658 12.7188H9.66325V7.71875H7.99658V12.7188ZM8.82992 6.05208C9.06603 6.05208 9.26394 5.97222 9.42367 5.8125C9.58339 5.65278 9.66325 5.45486 9.66325 5.21875C9.66325 4.98264 9.58339 4.78472 9.42367 4.625C9.26394 4.46528 9.06603 4.38542 8.82992 4.38542C8.5938 4.38542 8.39589 4.46528 8.23617 4.625C8.07644 4.78472 7.99658 4.98264 7.99658 5.21875C7.99658 5.45486 8.07644 5.65278 8.23617 5.8125C8.39589 5.97222 8.5938 6.05208 8.82992 6.05208ZM8.82992 16.8854C7.67714 16.8854 6.5938 16.6667 5.57992 16.2292C4.56603 15.7917 3.68408 15.1979 2.93408 14.4479C2.18408 13.6979 1.59033 12.816 1.15283 11.8021C0.715332 10.7882 0.496582 9.70486 0.496582 8.55208C0.496582 7.39931 0.715332 6.31597 1.15283 5.30208C1.59033 4.28819 2.18408 3.40625 2.93408 2.65625C3.68408 1.90625 4.56603 1.3125 5.57992 0.875C6.5938 0.4375 7.67714 0.21875 8.82992 0.21875C9.98269 0.21875 11.066 0.4375 12.0799 0.875C13.0938 1.3125 13.9757 1.90625 14.7257 2.65625C15.4757 3.40625 16.0695 4.28819 16.507 5.30208C16.9445 6.31597 17.1632 7.39931 17.1632 8.55208C17.1632 9.70486 16.9445 10.7882 16.507 11.8021C16.0695 12.816 15.4757 13.6979 14.7257 14.4479C13.9757 15.1979 13.0938 15.7917 12.0799 16.2292C11.066 16.6667 9.98269 16.8854 8.82992 16.8854ZM8.82992 15.2188C10.691 15.2188 12.2674 14.5729 13.5591 13.2812C14.8507 11.9896 15.4966 10.4132 15.4966 8.55208C15.4966 6.69097 14.8507 5.11458 13.5591 3.82292C12.2674 2.53125 10.691 1.88542 8.82992 1.88542C6.9688 1.88542 5.39242 2.53125 4.10075 3.82292C2.80908 5.11458 2.16325 6.69097 2.16325 8.55208C2.16325 10.4132 2.80908 11.9896 4.10075 13.2812C5.39242 14.5729 6.9688 15.2188 8.82992 15.2188Z" fill="#8DB600"/>
</svg>
