<svg width="22" height="21" viewBox="0 0 22 21" fill="none" xmlns="http://www.w3.org/2000/svg">
<path d="M8.24336 20.5924L7.84336 17.3924C7.62669 17.3091 7.42253 17.2091 7.23086 17.0924C7.03919 16.9758 6.85169 16.8508 6.66836 16.7174L3.69336 17.9674L0.943359 13.2174L3.51836 11.2674C3.50169 11.1508 3.49336 11.0383 3.49336 10.9299V10.2549C3.49336 10.1466 3.50169 10.0341 3.51836 9.91744L0.943359 7.96744L3.69336 3.21744L6.66836 4.46744C6.85169 4.3341 7.04336 4.2091 7.24336 4.09244C7.44336 3.97577 7.64336 3.87577 7.84336 3.79244L8.24336 0.592438H13.7434L14.1434 3.79244C14.36 3.87577 14.5642 3.97577 14.7559 4.09244C14.9475 4.2091 15.135 4.3341 15.3184 4.46744L18.2934 3.21744L21.0434 7.96744L18.4684 9.91744C18.485 10.0341 18.4934 10.1466 18.4934 10.2549V10.9299C18.4934 11.0383 18.4767 11.1508 18.4434 11.2674L21.0184 13.2174L18.2684 17.9674L15.3184 16.7174C15.135 16.8508 14.9434 16.9758 14.7434 17.0924C14.5434 17.2091 14.3434 17.3091 14.1434 17.3924L13.7434 20.5924H8.24336ZM9.99336 18.5924H11.9684L12.3184 15.9424C12.835 15.8091 13.3142 15.6133 13.7559 15.3549C14.1975 15.0966 14.6017 14.7841 14.9684 14.4174L17.4434 15.4424L18.4184 13.7424L16.2684 12.1174C16.3517 11.8841 16.41 11.6383 16.4434 11.3799C16.4767 11.1216 16.4934 10.8591 16.4934 10.5924C16.4934 10.3258 16.4767 10.0633 16.4434 9.80494C16.41 9.54661 16.3517 9.30077 16.2684 9.06744L18.4184 7.44244L17.4434 5.74244L14.9684 6.79244C14.6017 6.4091 14.1975 6.08827 13.7559 5.82994C13.3142 5.5716 12.835 5.37577 12.3184 5.24244L11.9934 2.59244H10.0184L9.66836 5.24244C9.15169 5.37577 8.67253 5.5716 8.23086 5.82994C7.78919 6.08827 7.38503 6.40077 7.01836 6.76744L4.54336 5.74244L3.56836 7.44244L5.71836 9.04244C5.63503 9.29244 5.57669 9.54244 5.54336 9.79244C5.51003 10.0424 5.49336 10.3091 5.49336 10.5924C5.49336 10.8591 5.51003 11.1174 5.54336 11.3674C5.57669 11.6174 5.63503 11.8674 5.71836 12.1174L3.56836 13.7424L4.54336 15.4424L7.01836 14.3924C7.38503 14.7758 7.78919 15.0966 8.23086 15.3549C8.67253 15.6133 9.15169 15.8091 9.66836 15.9424L9.99336 18.5924ZM11.0434 14.0924C12.01 14.0924 12.835 13.7508 13.5184 13.0674C14.2017 12.3841 14.5434 11.5591 14.5434 10.5924C14.5434 9.62577 14.2017 8.80077 13.5184 8.11744C12.835 7.4341 12.01 7.09244 11.0434 7.09244C10.06 7.09244 9.23086 7.4341 8.55586 8.11744C7.88086 8.80077 7.54336 9.62577 7.54336 10.5924C7.54336 11.5591 7.88086 12.3841 8.55586 13.0674C9.23086 13.7508 10.06 14.0924 11.0434 14.0924Z" fill="#39394D"/>
</svg>
