<svg width="36" height="36" viewBox="0 0 36 36" fill="none" xmlns="http://www.w3.org/2000/svg">
<circle opacity="0.2" cx="18" cy="18" r="18" fill="#C7C7CC"/>
<g clip-path="url(#clip0_4343_5321)">
<path d="M29 16.1667C29 13.6394 26.9439 11.5833 24.4167 11.5833H22.5833V10.6667C22.5833 9.1505 21.3495 7.91666 19.8333 7.91666H9.74999C8.23383 7.91666 6.99999 9.1505 6.99999 10.6667V12.7823L8.83333 10.949V10.6667C8.83333 10.1616 9.24399 9.75 9.74999 9.75H19.8333C20.3393 9.75 20.75 10.1616 20.75 10.6667V22.5833H8.83333V21.3834L6.99999 19.5501V24.4167H8.87091C8.84891 24.5679 8.83333 24.7201 8.83333 24.875C8.83333 26.6442 10.2725 28.0833 12.0417 28.0833C13.8108 28.0833 15.25 26.6442 15.25 24.875C15.25 24.7201 15.2344 24.5679 15.2124 24.4167H20.7876C20.7656 24.5679 20.75 24.7201 20.75 24.875C20.75 26.6442 22.1892 28.0833 23.9583 28.0833C25.7275 28.0833 27.1667 26.6442 27.1667 24.875C27.1667 24.7201 27.1511 24.5679 27.1291 24.4167H29V16.1667ZM13.4167 24.875C13.4167 25.6331 12.7997 26.25 12.0417 26.25C11.2836 26.25 10.6667 25.6331 10.6667 24.875C10.6667 24.7008 10.7024 24.5487 10.7519 24.4167H13.3314C13.3809 24.5487 13.4167 24.7008 13.4167 24.875ZM24.4167 13.4167C25.9328 13.4167 27.1667 14.6505 27.1667 16.1667V17.0833H22.5833V13.4167H24.4167ZM25.3333 24.875C25.3333 25.6331 24.7164 26.25 23.9583 26.25C23.2002 26.25 22.5833 25.6331 22.5833 24.875C22.5833 24.7008 22.6191 24.5487 22.6686 24.4167H25.2481C25.2976 24.5487 25.3333 24.7008 25.3333 24.875ZM22.5833 22.5833V18.9167H27.1667V22.5833H22.5833ZM12.0252 12.9418L9.71699 15.25H17.0824V17.0833H9.71791L12.0261 19.3915L10.7299 20.6877L7.50508 17.4628C6.79008 16.7478 6.79008 15.5855 7.50508 14.8705L10.7299 11.6457L12.0252 12.9418Z" fill="#1D1D1F"/>
</g>
<defs>
<clipPath id="clip0_4343_5321">
<rect width="22" height="22" fill="white" transform="translate(7 7)"/>
</clipPath>
</defs>
</svg>
