<svg width="24" height="24" viewBox="0 0 24 24" fill="none" xmlns="http://www.w3.org/2000/svg">
<path d="M12 2.4C11.8924 2.40065 11.7851 2.41217 11.6797 2.43438L11.6781 2.43281L3.70315 4.02813L3.70159 4.02969C3.33583 4.09913 3.00574 4.29394 2.76816 4.58057C2.53059 4.86721 2.4004 5.22771 2.40002 5.6V18.4C2.4001 18.7728 2.53035 19.1338 2.76826 19.4208C3.00618 19.7078 3.33684 19.9027 3.70315 19.9719L11.6781 21.5672C11.7841 21.589 11.8919 21.6 12 21.6C12.4244 21.6 12.8313 21.4314 13.1314 21.1314C13.4315 20.8313 13.6 20.4243 13.6 20V4C13.6 3.57566 13.4315 3.16869 13.1314 2.86863C12.8313 2.56857 12.4244 2.4 12 2.4ZM15.2 4V6.4H16.8V8H15.2V9.6H16.8V11.2H15.2V12.8H16.8V14.4H15.2V16H16.8V17.6H15.2V20H20C20.884 20 21.6 19.284 21.6 18.4V5.6C21.6 4.716 20.884 4 20 4H15.2ZM18.4 6.4H19.2C19.6416 6.4 20 6.7584 20 7.2C20 7.6416 19.6416 8 19.2 8H18.4V6.4ZM4.94846 8H6.87034L7.86565 10.3922C7.94645 10.5874 8.01106 10.8135 8.07346 11.0703H8.10002C8.13602 10.9159 8.20685 10.6814 8.31565 10.3734L9.42815 8H11.1781L9.08752 11.9641L11.2406 15.9984H9.37346L8.17034 13.3922C8.12474 13.3002 8.07139 13.1146 8.02659 12.8578H8.0094C7.9822 12.981 7.9285 13.1669 7.8469 13.4141L6.63596 16H4.7594L6.98596 11.9953L4.94846 8ZM18.4 9.6H19.2C19.6416 9.6 20 9.9584 20 10.4C20 10.8416 19.6416 11.2 19.2 11.2H18.4V9.6ZM18.4 12.8H19.2C19.6416 12.8 20 13.1584 20 13.6C20 14.0416 19.6416 14.4 19.2 14.4H18.4V12.8ZM18.4 16H19.2C19.6416 16 20 16.3584 20 16.8C20 17.2416 19.6416 17.6 19.2 17.6H18.4V16Z" fill="black"/>
</svg>
