<svg width="36" height="36" viewBox="0 0 36 36" fill="none" xmlns="http://www.w3.org/2000/svg">
<circle opacity="0.2" cx="18" cy="18" r="18" fill="#C7C7CC"/>
<g clip-path="url(#clip0_4343_5344)">
<path d="M24.4167 11.5833H22.4908C22.0645 9.49425 20.2137 7.91666 18 7.91666H11.5833C9.05608 7.91666 7 9.97275 7 12.5C7 13.006 7.41067 13.4167 7.91667 13.4167C8.42267 13.4167 8.83333 13.006 8.83333 12.5C8.83333 10.9838 10.0672 9.75 11.5833 9.75H18C19.5162 9.75 20.75 10.9838 20.75 12.5V22.5833H10.6667C9.65558 22.5833 8.83333 21.7611 8.83333 20.75V19.8333C8.83333 19.3264 8.42267 18.9167 7.91667 18.9167C7.41067 18.9167 7 19.3264 7 19.8333V20.75C7 22.4742 8.19992 23.9143 9.80592 24.3039C9.77108 24.4909 9.75 24.6816 9.75 24.875C9.75 26.6442 11.1892 28.0833 12.9583 28.0833C14.7275 28.0833 16.1667 26.6442 16.1667 24.875C16.1667 24.7201 16.1511 24.5679 16.1291 24.4167H19.8709C19.8489 24.5679 19.8333 24.7201 19.8333 24.875C19.8333 26.6442 21.2725 28.0833 23.0417 28.0833C24.8108 28.0833 26.25 26.6442 26.25 24.875C26.25 24.6816 26.2289 24.4909 26.1941 24.3039C27.8001 23.9143 29 22.4742 29 20.75V16.1667C29 13.6394 26.9439 11.5833 24.4167 11.5833ZM27.1667 16.1667V17.0833H22.5833V13.4167H24.4167C25.9328 13.4167 27.1667 14.6505 27.1667 16.1667ZM14.3333 24.875C14.3333 25.6331 13.7164 26.25 12.9583 26.25C12.2003 26.25 11.5833 25.6331 11.5833 24.875C11.5833 24.7017 11.6191 24.5496 11.6686 24.4167H14.249C14.2985 24.5496 14.3343 24.7017 14.3343 24.875H14.3333ZM23.0417 26.25C22.2836 26.25 21.6667 25.6331 21.6667 24.875C21.6667 24.7008 21.7024 24.5487 21.7519 24.4167H24.3314C24.3809 24.5487 24.4167 24.7008 24.4167 24.875C24.4167 25.6331 23.7998 26.25 23.0417 26.25ZM25.3333 22.5833H22.5833V18.9167H27.1667V20.75C27.1667 21.7611 26.3444 22.5833 25.3333 22.5833ZM7.91667 15.25H14.3663L12.7457 13.6293C12.3873 13.2709 12.3873 12.6907 12.7457 12.3332C13.1041 11.9747 13.6834 11.9747 14.0418 12.3332L16.5792 14.8705C17.2942 15.5855 17.2942 16.7478 16.5792 17.4628L14.0418 20.0002C13.8631 20.1789 13.6284 20.2687 13.3938 20.2687C13.1591 20.2687 12.9244 20.1789 12.7457 20.0002C12.3873 19.6417 12.3873 19.0624 12.7457 18.704L14.3663 17.0833H7.91667C7.41067 17.0833 7 16.6727 7 16.1667C7 15.6607 7.41067 15.25 7.91667 15.25Z" fill="black"/>
</g>
<defs>
<clipPath id="clip0_4343_5344">
<rect width="22" height="22" fill="white" transform="translate(7 7)"/>
</clipPath>
</defs>
</svg>
