<svg width="36" height="36" viewBox="0 0 36 36" fill="none" xmlns="http://www.w3.org/2000/svg">
<circle opacity="0.2" cx="18" cy="18" r="18" fill="#C7C7CC"/>
<g clip-path="url(#clip0_4343_5362)">
<path d="M22.8098 16.4224C23.2525 16.856 23.8346 17.0723 24.4167 17.0723C24.9988 17.0723 25.5808 16.856 26.0227 16.4224L27.6571 14.8238C29.4446 13.0363 29.4446 10.1286 27.6571 8.342C26.7917 7.47667 25.6404 7 24.4167 7C23.1929 7 22.0416 7.47667 21.1753 8.342C19.3888 10.1295 19.3888 13.0372 21.1827 14.8311L22.8098 16.4224ZM22.4715 9.63908C22.9913 9.11933 23.6815 8.83333 24.4167 8.83333C25.1518 8.83333 25.8421 9.11933 26.3609 9.63817C27.4334 10.7107 27.4334 12.4551 26.3682 13.5202L24.7412 15.1116C24.5624 15.2876 24.2709 15.2876 24.0922 15.1116L22.4724 13.5276C21.4008 12.4551 21.4008 10.7107 22.4724 9.63817L22.4715 9.63908ZM10.6667 27.1667C10.6667 28.1796 9.84625 29 8.83333 29C7.82042 29 7 28.1796 7 27.1667C7 26.1537 7.82042 25.3333 8.83333 25.3333C9.84625 25.3333 10.6667 26.1537 10.6667 27.1667ZM20.2917 21.6667C20.2917 22.6796 19.4713 23.5 18.4583 23.5C17.4454 23.5 16.625 22.6796 16.625 21.6667C16.625 20.6538 17.4454 19.8333 18.4583 19.8333C19.4713 19.8333 20.2917 20.6538 20.2917 21.6667ZM8.83333 18.9167C8.83333 16.8945 10.4778 15.25 12.5 15.25H18.9167C19.4227 15.25 19.8333 15.6607 19.8333 16.1667C19.8333 16.6727 19.4227 17.0833 18.9167 17.0833H12.5C11.4889 17.0833 10.6667 17.9056 10.6667 18.9167C10.6667 19.9278 11.4889 20.75 12.5 20.75H14.3333C14.8393 20.75 15.25 21.1607 15.25 21.6667C15.25 22.1727 14.8393 22.5833 14.3333 22.5833H12.5C10.4778 22.5833 8.83333 20.9388 8.83333 18.9167ZM29 24.4167C29 26.4388 27.3555 28.0833 25.3333 28.0833H13.4167C12.9107 28.0833 12.5 27.6727 12.5 27.1667C12.5 26.6607 12.9107 26.25 13.4167 26.25H25.3333C26.3444 26.25 27.1667 25.4277 27.1667 24.4167C27.1667 23.4056 26.3444 22.5833 25.3333 22.5833H22.5833C22.0773 22.5833 21.6667 22.1727 21.6667 21.6667C21.6667 21.1607 22.0773 20.75 22.5833 20.75H25.3333C27.3555 20.75 29 22.3945 29 24.4167ZM25.3342 11.3881C25.3342 11.8941 24.9236 12.3048 24.4176 12.3048C23.9116 12.3048 23.5009 11.8941 23.5009 11.3881C23.5009 10.8821 23.9116 10.4714 24.4176 10.4714C24.9236 10.4714 25.3342 10.8821 25.3342 11.3881Z" fill="#1D1D1F"/>
</g>
<defs>
<clipPath id="clip0_4343_5362">
<rect width="22" height="22" fill="white" transform="translate(7 7)"/>
</clipPath>
</defs>
</svg>
