<svg width="36" height="36" viewBox="0 0 36 36" fill="none" xmlns="http://www.w3.org/2000/svg">
<circle opacity="0.2" cx="18" cy="18" r="18" fill="#C7C7CC"/>
<g clip-path="url(#clip0_4343_5310)">
<path d="M21 11.25C21 10.0095 19.9905 9 18.75 9H11.25C10.0095 9 9 10.0095 9 11.25V24.375C9 25.8225 10.1775 27 11.625 27H21C22.2405 27 23.25 25.9905 23.25 24.75V22.5H21V11.25ZM21.75 24V24.75C21.75 25.164 21.414 25.5 21 25.5H13.9965C14.1593 25.1588 14.25 24.777 14.25 24.375V24H21.75ZM12.75 22.5V24.375C12.75 24.9952 12.2452 25.5 11.625 25.5C11.0048 25.5 10.5 24.9952 10.5 24.375V11.25C10.5 10.836 10.836 10.5 11.25 10.5H18.75C19.164 10.5 19.5 10.836 19.5 11.25V22.5H12.75ZM24.75 9C23.5095 9 22.5 10.0095 22.5 11.25V20.5605L24.75 22.8105L27 20.5605V11.25C27 10.0095 25.9905 9 24.75 9ZM25.5 19.9395L24.75 20.6895L24 19.9395V11.25C24 10.836 24.336 10.5 24.75 10.5C25.164 10.5 25.5 10.836 25.5 11.25V19.9395ZM15.4515 12.2198L16.512 13.2802L14.3918 15.4005C14.1593 15.633 13.854 15.7492 13.5487 15.7492C13.2435 15.7492 12.9383 15.633 12.7057 15.4005L11.4705 14.1652L12.531 13.1048L13.5487 14.1225L15.4515 12.2198ZM15.4515 16.7198L16.512 17.7802L14.3918 19.9005C14.1593 20.133 13.854 20.2492 13.5487 20.2492C13.2435 20.2492 12.9383 20.133 12.7057 19.9005L11.4705 18.6652L12.531 17.6047L13.5487 18.6225L15.4515 16.7198Z" fill="black"/>
</g>
<defs>
<clipPath id="clip0_4343_5310">
<rect width="18" height="18" fill="white" transform="translate(9 9)"/>
</clipPath>
</defs>
</svg>
