<svg width="24" height="24" viewBox="0 0 24 24" fill="none" xmlns="http://www.w3.org/2000/svg">
<path d="M12 2.39999C11.8923 2.40065 11.785 2.41216 11.6797 2.43437L11.6781 2.43281L3.72812 4.02343L3.70312 4.02812L3.70156 4.02968C3.3358 4.09912 3.00571 4.29393 2.76813 4.58057C2.53055 4.8672 2.40037 5.2277 2.39999 5.59999V18.4C2.40007 18.7728 2.53032 19.1338 2.76823 19.4208C3.00615 19.7078 3.33681 19.9027 3.70312 19.9719L11.6719 21.5656L11.6781 21.5672C11.784 21.589 11.8919 21.6 12 21.6C12.4243 21.6 12.8313 21.4314 13.1314 21.1314C13.4314 20.8313 13.6 20.4243 13.6 20V3.99999C13.6 3.57565 13.4314 3.16868 13.1314 2.86862C12.8313 2.56856 12.4243 2.39999 12 2.39999ZM15.2 3.99999V6.39999H18.4C18.8416 6.39999 19.2 6.75839 19.2 7.19999C19.2 7.64159 18.8416 7.99999 18.4 7.99999H15.2V9.59999H18.4C18.8416 9.59999 19.2 9.95839 19.2 10.4C19.2 10.8416 18.8416 11.2 18.4 11.2H15.2V12.8H18.4C18.8416 12.8 19.2 13.1584 19.2 13.6C19.2 14.0416 18.8416 14.4 18.4 14.4H15.2V16H18.4C18.8416 16 19.2 16.3584 19.2 16.8C19.2 17.2416 18.8416 17.6 18.4 17.6H15.2V20H20C20.884 20 21.6 19.284 21.6 18.4V5.59999C21.6 4.71599 20.884 3.99999 20 3.99999H15.2ZM4.21093 7.99999H5.69843L6.44999 13.3062H6.52031L7.42187 7.99999H8.57031L9.50468 13.3062H9.57499L10.3125 7.99999H11.7891L10.3172 16H8.97343L8.03124 11.0984H7.96093L7.03593 16H5.68281L4.21093 7.99999Z" fill="#374151"/>
</svg>
